HIERARCHY
ROOT Hips
{
	OFFSET 0.000000 0.000000 0.000000
	CHANNELS 6 Xposition Yposition Zposition Xrotation Yrotation Zrotation
	JOINT LeftUpLeg_virtual
	{
		OFFSET 0.000000 0.000000 0.000000
		CHANNELS 3 Xrotation Yrotation Zrotation
		JOINT LeftUpLeg
		{
			OFFSET 13.026900 -6.336304 -1.092800
			CHANNELS 3 Xrotation Yrotation Zrotation
			JOINT LeftLeg
			{
				OFFSET 0.524474 -46.096886 9.782700
				CHANNELS 3 Xrotation Yrotation Zrotation
				JOINT LeftFoot
				{
					OFFSET -0.524474 -53.427422 -12.948200
					CHANNELS 3 Xrotation Yrotation Zrotation
					JOINT LeftToeBase
					{
						OFFSET 0.192200 -14.009700 16.364100
						CHANNELS 3 Xrotation Yrotation Zrotation
						JOINT LeftToe_End
						{
							OFFSET -1.784700 -0.561700 9.474800
							CHANNELS 3 Xrotation Yrotation Zrotation
							End Site
							{
								OFFSET 0 0 0
							}
						}
					}
				}
			}
		}
	}
	JOINT RightUpLeg_virtual
	{
		OFFSET 0.000000 0.000000 0.000000
		CHANNELS 3 Xrotation Yrotation Zrotation
		JOINT RightUpLeg
		{
			OFFSET -12.883000 -6.336304 -1.092800
			CHANNELS 3 Xrotation Yrotation Zrotation
			JOINT RightLeg
			{
				OFFSET -0.524587 -46.096825 9.782800
				CHANNELS 3 Xrotation Yrotation Zrotation
				JOINT RightFoot
				{
					OFFSET 0.524587 -53.427383 -12.948300
					CHANNELS 3 Xrotation Yrotation Zrotation
					JOINT RightToeBase
					{
						OFFSET -0.192200 -14.009700 16.364100
						CHANNELS 3 Xrotation Yrotation Zrotation
						JOINT RightToe_End
						{
							OFFSET 1.784700 -0.561700 9.474800
							CHANNELS 3 Xrotation Yrotation Zrotation
							End Site
							{
								OFFSET 0 0 0
							}
						}
					}
				}
			}
		}
	}
	JOINT Spine_virtual
	{
		OFFSET 0.000000 0.000000 0.000000
		CHANNELS 3 Xrotation Yrotation Zrotation
		JOINT Spine
		{
			OFFSET 0.072000 7.257294 -0.789700
			CHANNELS 3 Xrotation Yrotation Zrotation
			JOINT Spine1
			{
				OFFSET 0.000000 12.508769 -0.658067
				CHANNELS 3 Xrotation Yrotation Zrotation
				JOINT Spine1_split
				{
					OFFSET 0.000000 12.508769 -0.658067
					CHANNELS 3 Xrotation Yrotation Zrotation
					JOINT Spine2
					{
						OFFSET 0.000000 12.508769 -0.658067
						CHANNELS 3 Xrotation Yrotation Zrotation
						JOINT Neck_virtual
						{
							OFFSET 0.000000 0.000000 0.000000
							CHANNELS 3 Xrotation Yrotation Zrotation
							JOINT Neck
							{
								OFFSET 0.000000 14.033295 7.520400
								CHANNELS 3 Xrotation Yrotation Zrotation
								JOINT Head
								{
									OFFSET 0.000000 8.198502 5.703100
									CHANNELS 3 Xrotation Yrotation Zrotation
									JOINT HeadTop_End
									{
										OFFSET 0.000000 17.760803 13.332701
										CHANNELS 3 Xrotation Yrotation Zrotation
										End Site
										{
											OFFSET 0 0 0
										}
									}
								}
							}
						}
						JOINT LeftShoulder_virtual
						{
							OFFSET 0.000000 0.000000 0.000000
							CHANNELS 3 Xrotation Yrotation Zrotation
							JOINT LeftShoulder
							{
								OFFSET 6.292450 5.785301 -0.669000
								CHANNELS 3 Xrotation Yrotation Zrotation
								JOINT LeftShoulder_split
								{
									OFFSET 6.292450 5.785301 -0.669000
									CHANNELS 3 Xrotation Yrotation Zrotation
									JOINT LeftArm
									{
										OFFSET 13.907140 -6.093903 1.965100
										CHANNELS 3 Xrotation Yrotation Zrotation
										JOINT LeftForeArm
										{
											OFFSET 34.140198 0.000000 0.000000
											CHANNELS 3 Xrotation Yrotation Zrotation
											JOINT LeftHand
											{
												OFFSET 40.960209 0.000000 0.000000
												CHANNELS 3 Xrotation Yrotation Zrotation
												End Site
												{
													OFFSET 0 0 0
												}
											}
										}
									}
								}
							}
						}
						JOINT RightShoulder_virtual
						{
							OFFSET 0.000000 0.000000 0.000000
							CHANNELS 3 Xrotation Yrotation Zrotation
							JOINT RightShoulder
							{
								OFFSET -6.292450 5.785301 -0.669000
								CHANNELS 3 Xrotation Yrotation Zrotation
								JOINT RightShoulder_split
								{
									OFFSET -6.292450 5.785301 -0.669000
									CHANNELS 3 Xrotation Yrotation Zrotation
									JOINT RightArm
									{
										OFFSET -13.907140 -6.093903 1.965100
										CHANNELS 3 Xrotation Yrotation Zrotation
										JOINT RightForeArm
										{
											OFFSET -34.140198 0.000000 0.000000
											CHANNELS 3 Xrotation Yrotation Zrotation
											JOINT RightHand
											{
												OFFSET -40.960209 0.000000 0.000000
												CHANNELS 3 Xrotation Yrotation Zrotation
												End Site
												{
													OFFSET 0 0 0
												}
											}
										}
									}
								}
							}
						}
					}
				}
			}
		}
	}
}
MOTION
Frames: 5
Frame Time: 0.03333333
0.192530 94.255646 2.374039 0.000000 0.000000 0.000000 -5.068802 -52.445703 0.709491 -32.987495 8.121647 15.639765 55.560662 -3.481339 4.650053 -20.844230 -9.313333 -13.150673 -2.207627 -0.079103 -0.509343 0.000000 0.000000 0.000000 -6.623170 -46.779334 1.134722 -23.252653 -11.860950 -28.119756 55.829990 -10.747645 -9.728574 -23.025034 -5.521498 20.881125 -1.692027 0.804750 0.886998 0.000000 0.000000 0.000000 -4.186637 -51.133760 1.692979 10.179206 6.789748 -1.665566 1.945409 1.127247 -0.738295 0.259881 -0.461538 0.791110 0.000000 0.000000 0.000000 2.657561 1.161691 -0.649672 -1.143347 13.541297 3.278171 8.840310 20.626864 -4.557948 0.000000 0.000000 0.000000 3.494237 0.986531 -0.828092 1.619103 2.874038 -12.019279 -2.851769 0.418900 0.016624 -52.209648 2.306396 -50.391524 -178.848258 -74.504824 -178.556322 0.000000 0.000000 0.000000 3.677928 1.305239 -0.517814 3.448865 11.537287 -5.978066 -2.427654 1.976059 0.684673 -49.504876 26.869028 87.535452 -173.348275 71.892543 171.044944 0.000000 0.000000 0.000000 
-0.141288 94.763672 2.781773 0.000000 0.000000 0.000000 -4.801351 -52.220420 0.937450 -32.764612 8.437909 15.653938 54.663356 -3.757055 4.652795 -20.864795 -9.658382 -13.281302 -2.376792 -0.062536 -0.383922 0.000000 0.000000 0.000000 -6.277187 -47.141494 1.397120 -23.367925 -12.356806 -28.542630 55.177844 -10.540497 -9.609527 -21.775174 -4.615111 19.552298 -1.768210 0.823740 1.312175 0.000000 0.000000 0.000000 -3.132481 -50.664847 2.470115 9.948966 6.945926 -1.738928 2.044434 1.208694 -0.823014 0.392490 -0.397783 0.712076 0.000000 0.000000 0.000000 2.669087 1.255522 -0.790961 -1.054164 13.466688 3.107031 9.069809 20.568944 -4.418974 0.000000 0.000000 0.000000 3.655752 1.030310 -0.878374 1.548063 2.344198 -11.417743 -3.023221 0.408542 -0.071509 -52.839211 2.846229 -50.197591 -179.352599 -75.294708 -178.914073 0.000000 0.000000 0.000000 3.794996 1.367581 -0.635611 3.522878 11.783920 -5.717562 -2.814108 2.763261 0.987420 -50.080477 27.373761 87.570668 -173.935781 72.182696 171.822370 0.000000 0.000000 0.000000 
-0.757564 95.848701 2.954121 0.000000 0.000000 0.000000 -4.190279 -51.270429 1.574688 -32.326903 8.711585 15.652353 53.084374 -4.125938 4.583612 -20.685983 -10.398577 -13.302057 -2.653792 -0.061044 -0.087327 0.000000 0.000000 0.000000 -5.621076 -47.200692 2.164357 -24.681657 -11.898441 -29.779393 55.207579 -9.563358 -9.368784 -18.198669 -2.404655 19.254897 -3.541040 0.832002 1.856124 0.000000 0.000000 0.000000 -1.828106 -49.470640 3.543327 9.773271 7.268411 -1.981568 2.099617 1.440664 -1.005023 0.384772 -0.439488 0.644622 0.000000 0.000000 0.000000 2.613997 1.451091 -1.011899 -0.793783 13.310040 2.659062 9.337986 19.999453 -4.001097 0.000000 0.000000 0.000000 3.621148 1.217245 -1.054659 1.470064 1.332325 -10.746109 -2.854285 0.105856 -0.425913 -54.930458 3.478777 -48.896197 -179.897935 -75.204146 -179.256348 0.000000 0.000000 0.000000 3.833291 1.524343 -0.869320 3.620656 12.278091 -5.487551 -2.781464 2.643537 1.137890 -51.806688 27.211906 87.546660 -174.309433 72.837602 172.473355 0.000000 0.000000 0.000000 
-1.584043 97.214264 3.004116 0.000000 0.000000 0.000000 -3.356082 -49.719686 2.410738 -31.768402 8.903079 15.681011 51.136974 -4.454440 4.443095 -20.410552 -11.380602 -13.175373 -2.911936 -0.076302 0.267287 0.000000 0.000000 0.000000 -4.674374 -46.567612 3.208918 -26.543514 -10.621767 -31.323196 55.757792 -8.111278 -9.120562 -13.987550 0.334445 19.375739 -5.706808 0.814746 2.304892 0.000000 0.000000 0.000000 -0.678385 -47.720059 4.565059 9.673010 7.615188 -2.313625 2.091502 1.715564 -1.186348 0.184841 -0.598212 0.697789 0.000000 0.000000 0.000000 2.540765 1.669432 -1.192124 -0.446017 13.137153 2.054622 9.586649 19.056993 -3.369873 0.000000 0.000000 0.000000 3.410570 1.461444 -1.238891 1.419428 -0.017760 -10.055155 -2.545967 -0.469644 -0.968525 -58.152654 4.131674 -46.550338 179.824633 -74.286346 -179.306522 0.000000 0.000000 0.000000 3.751542 1.706778 -1.098390 3.718183 12.927837 -5.405256 -2.615568 1.698240 1.162391 -54.763668 26.267810 87.529236 -174.432704 74.021957 172.856010 0.000000 0.000000 0.000000 
-2.504658 98.595001 3.015450 0.000000 0.000000 0.000000 -2.485868 -47.726872 3.203389 -31.287461 9.053816 15.805585 49.081043 -4.661816 4.330798 -20.267760 -12.435154 -12.925689 -3.065183 -0.095799 0.533949 0.000000 0.000000 0.000000 -3.796127 -45.326710 4.073347 -28.514382 -9.056688 -32.592874 56.739003 -6.928859 -8.794155 -10.554834 2.386362 18.975403 -6.367706 0.797238 2.466799 0.000000 0.000000 0.000000 0.239747 -45.736159 5.297541 9.613562 7.874448 -2.589040 2.022304 1.917157 -1.265224 0.027712 -0.678438 0.761923 0.000000 0.000000 0.000000 2.458754 1.815789 -1.219030 -0.127749 12.949115 1.495743 9.749496 17.988734 -2.606329 0.000000 0.000000 0.000000 3.093271 1.666939 -1.303052 1.416902 -1.572843 -9.435546 -2.371965 -0.974346 -1.475665 -62.164106 4.561525 -43.511129 179.698958 -72.871131 -179.249763 0.000000 0.000000 0.000000 3.555983 1.829292 -1.195247 3.813482 13.675556 -5.515759 -2.505457 0.641522 1.002678 -58.909234 24.564823 87.620494 -174.066346 75.823515 172.637157 0.000000 0.000000 0.000000 
